<?xml version="1.0" standalone="no"?>
<!DOCTYPE svg PUBLIC "-//W3C//DTD SVG 20010904//EN"
 "http://www.w3.org/TR/2001/REC-SVG-20010904/DTD/svg10.dtd">
<svg version="1.0" xmlns="http://www.w3.org/2000/svg"
 width="1350.000000pt" height="1470.000000pt" viewBox="0 0 1350.000000 1470.000000"
 preserveAspectRatio="xMidYMid meet">
<metadata>
</metadata>
<g transform="translate(0.000000,1470.000000) scale(0.100000,-0.100000)"
fill="#8652ff" stroke="none">
<path d="M5185 13965 c-19 -18 -25 -35 -25 -68 0 -63 25 -92 80 -92 94 0 121
109 42 173 -26 20 -71 14 -97 -13z"/>
<path d="M4914 13916 c-59 -26 -89 -89 -65 -135 15 -28 84 -46 119 -32 28 12
52 47 52 74 0 38 -22 85 -46 95 -13 7 -26 12 -27 12 -1 -1 -16 -7 -33 -14z"/>
<path d="M7477 13809 c-26 -15 -46 -68 -40 -102 7 -38 39 -57 94 -57 39 0 51
5 68 26 12 15 21 38 21 51 0 31 -25 79 -45 87 -25 9 -78 7 -98 -5z"/>
<path d="M4102 13772 c-23 -15 -82 -107 -82 -130 0 -13 11 -51 24 -85 13 -34
29 -75 34 -92 15 -44 65 -160 100 -235 36 -79 61 -135 77 -175 110 -275 139
-342 153 -353 16 -13 89 -10 127 4 24 9 18 55 -19 145 -81 198 -137 331 -180
428 -86 191 -162 377 -178 433 -12 42 -38 70 -56 60z"/>
<path d="M9046 13725 c-32 -13 -69 -33 -81 -45 -24 -23 -30 -38 -119 -335 -30
-99 -71 -234 -91 -300 -21 -66 -53 -173 -73 -237 -20 -64 -43 -126 -52 -138
-9 -11 -34 -27 -55 -34 -34 -12 -44 -12 -68 0 -15 8 -32 26 -37 39 -10 26 2
152 20 215 20 68 13 96 -29 129 -41 32 -47 52 -71 214 -12 79 -55 179 -94 221
-25 26 -32 28 -77 23 -134 -16 -184 -124 -84 -183 24 -13 48 -31 54 -38 13
-16 61 -190 61 -223 0 -32 -26 -30 -134 13 -119 47 -297 92 -414 104 -52 6
-98 12 -103 15 -4 3 -6 48 -2 100 l6 94 -26 6 c-37 10 -93 -12 -131 -50 -44
-44 -73 -129 -86 -253 -18 -165 -23 -171 -128 -147 -87 20 -126 10 -130 -31
-4 -38 39 -98 98 -139 38 -26 52 -30 110 -29 85 1 156 21 179 50 10 13 27 57
36 96 28 116 22 111 128 106 95 -5 227 -33 357 -75 41 -14 117 -33 167 -43 51
-9 99 -22 106 -29 9 -6 16 -41 20 -84 9 -122 55 -194 152 -238 85 -39 214 -13
287 58 21 20 38 41 38 45 0 5 9 21 19 36 11 15 31 61 44 102 38 111 138 440
147 480 15 64 99 324 135 415 19 49 35 96 35 102 0 20 -49 15 -114 -12z"/>
<path d="M3587 13598 c-23 -18 -47 -81 -47 -125 0 -26 20 -79 66 -173 36 -74
72 -151 79 -170 20 -54 79 -176 146 -299 56 -104 59 -114 46 -134 -17 -26
-147 -80 -180 -75 -17 2 -36 30 -83 118 -51 97 -65 115 -87 118 -39 5 -82 -63
-74 -117 5 -43 39 -119 74 -166 12 -17 19 -36 15 -42 -4 -7 -61 -39 -127 -72
-162 -82 -250 -131 -314 -174 -29 -21 -61 -37 -70 -37 -21 0 -224 215 -266
282 -37 58 -54 67 -77 36 -57 -76 -80 -100 -151 -158 -152 -124 -175 -213 -80
-301 88 -83 145 -79 278 20 54 39 105 71 115 71 10 0 28 -9 41 -20 l24 -20
-26 -22 c-15 -13 -86 -66 -158 -118 -73 -52 -183 -132 -245 -177 -63 -46 -123
-83 -133 -83 -11 0 -42 24 -70 55 -30 33 -59 55 -71 55 -31 0 -62 -38 -62 -76
0 -39 32 -114 60 -139 28 -25 25 -38 -14 -66 -18 -13 -104 -89 -191 -169 -86
-80 -163 -146 -171 -148 -7 -2 -40 24 -74 58 -96 96 -157 124 -180 81 -29 -55
0 -124 85 -206 36 -34 65 -67 65 -73 0 -6 -35 -51 -77 -100 -160 -183 -233
-268 -261 -307 -38 -52 -70 -85 -82 -85 -6 0 -27 17 -49 38 -21 20 -68 52
-104 70 -37 18 -87 50 -112 72 -27 23 -57 40 -71 40 -13 0 -24 -1 -24 -3 0
-40 -31 -141 -63 -207 -39 -78 -42 -91 -42 -165 0 -64 5 -89 23 -125 33 -63
56 -85 147 -145 160 -105 191 -114 231 -67 27 31 123 182 164 257 83 154 97
174 215 314 38 46 87 104 109 130 21 25 62 71 90 101 28 30 62 69 74 85 42 55
236 246 312 307 41 34 82 68 90 77 106 113 547 471 760 616 103 70 256 165
265 165 2 0 30 15 62 34 133 77 350 184 528 261 104 45 193 89 199 97 7 11
-31 97 -150 334 -87 176 -180 364 -206 419 -26 55 -63 133 -82 174 -43 90 -57
103 -89 79z m-873 -1250 c57 -25 39 -68 -53 -129 -50 -32 -82 -37 -105 -13
-24 23 -20 37 26 89 55 63 85 75 132 53z m-1591 -1737 c32 -12 97 -77 97 -96
0 -28 -67 -162 -86 -173 -49 -27 -132 83 -119 157 11 67 27 102 49 111 28 11
31 12 59 1z"/>
<path d="M5377 13536 c-43 -43 -63 -56 -108 -66 -95 -22 -177 -67 -205 -111
-36 -58 -44 -84 -51 -169 -6 -83 13 -194 45 -260 21 -43 51 -49 132 -26 30 8
134 37 230 64 l175 49 -2 39 c-1 21 -24 127 -52 234 -28 107 -51 213 -51 236
0 81 -40 84 -113 10z m-8 -232 c25 -32 30 -134 7 -153 -22 -18 -126 -51 -162
-51 -62 0 -67 68 -12 159 44 70 129 93 167 45z"/>
<path d="M6972 13537 c-13 -7 -43 -33 -67 -56 -40 -39 -45 -49 -46 -90 -2 -94
-8 -134 -21 -142 -7 -5 -78 -9 -158 -10 -201 -2 -470 -14 -497 -24 -23 -7 -23
-6 -23 73 0 44 -3 87 -6 96 -9 22 -63 29 -109 14 -32 -10 -45 -22 -62 -58 -20
-37 -23 -60 -22 -145 0 -55 4 -134 8 -175 7 -58 5 -80 -6 -98 -13 -22 -19 -23
-111 -20 -94 3 -97 2 -100 -19 -4 -30 47 -93 101 -124 34 -19 56 -24 119 -24
69 0 80 3 120 30 63 45 78 81 78 195 l0 95 398 -3 c373 -3 400 -2 419 15 19
16 22 35 33 223 14 247 14 241 -2 251 -17 11 -18 11 -46 -4z"/>
<path d="M9535 13527 c-28 -13 -64 -40 -81 -59 -17 -20 -91 -152 -164 -294
-269 -523 -293 -574 -288 -608 3 -23 88 -69 116 -64 25 5 76 97 309 558 84
168 169 334 188 370 43 80 43 114 0 118 -16 1 -53 -8 -80 -21z"/>
<path d="M3095 13047 c-61 -35 -58 -87 8 -127 71 -43 137 -9 137 70 0 74 -68
101 -145 57z"/>
<path d="M10263 13035 c-43 -19 -71 -74 -55 -109 16 -35 85 -69 123 -61 32 7
69 48 69 77 0 35 -31 79 -65 94 -40 16 -32 17 -72 -1z"/>
<path d="M2833 12910 c-33 -13 -56 -55 -49 -86 8 -31 51 -72 84 -81 33 -8 91
24 103 56 12 31 -5 86 -34 106 -24 16 -70 19 -104 5z"/>
<path d="M6496 12881 c-9 -10 -19 -41 -23 -68 -8 -68 16 -93 86 -93 42 0 53 4
70 26 25 32 27 64 5 109 -22 48 -104 63 -138 26z"/>
<path d="M10534 12871 c-50 -31 -82 -119 -52 -149 17 -17 95 -15 127 4 40 24
53 49 45 90 -11 57 -71 85 -120 55z"/>
<path d="M6815 12855 c-18 -18 -25 -35 -25 -65 0 -54 26 -80 81 -80 67 0 79
12 79 80 0 71 -15 90 -71 90 -29 0 -47 -7 -64 -25z"/>
<path d="M2373 12830 c-12 -5 -29 -20 -39 -34 -21 -33 -12 -69 26 -107 80 -80
202 31 128 116 -25 28 -79 40 -115 25z"/>
<path d="M7905 12685 c-30 -29 -34 -94 -8 -120 42 -42 95 -45 134 -6 38 38 41
97 6 129 -34 32 -100 30 -132 -3z"/>
<path d="M2112 12634 c-33 -23 -31 -86 5 -113 98 -78 220 22 133 109 -25 25
-105 27 -138 4z"/>
<path d="M9924 12559 c-33 -17 -72 -42 -88 -57 -52 -48 -186 -206 -186 -218 0
-22 134 -118 202 -146 10 -4 51 -29 90 -56 40 -27 102 -66 138 -86 74 -43 84
-50 314 -222 244 -181 387 -305 591 -509 157 -156 236 -248 450 -520 39 -49
192 -251 332 -437 96 -128 106 -138 136 -138 61 0 298 145 339 207 81 123 54
184 -215 504 -71 83 -72 105 -7 100 56 -4 121 -28 340 -128 206 -94 206 -94
225 -87 29 12 17 44 -22 60 -56 23 -109 48 -308 144 -480 234 -554 268 -603
280 -41 9 -56 10 -67 0 -23 -19 -18 -43 23 -97 172 -230 357 -473 430 -562 60
-75 58 -102 -13 -164 -37 -33 -61 -46 -73 -42 -9 3 -45 45 -79 93 -123 172
-349 464 -478 617 -47 56 -121 153 -139 183 -13 22 19 57 166 181 79 67 187
158 240 203 111 94 181 150 243 193 24 17 46 37 50 45 12 28 -96 97 -136 87
-30 -8 -157 -103 -229 -172 -30 -30 -74 -68 -97 -87 -97 -76 -282 -236 -332
-288 l-54 -54 -21 29 c-12 17 -63 73 -113 126 -51 52 -93 100 -93 105 0 5 39
48 86 94 133 132 139 159 33 162 -67 2 -104 -17 -188 -93 -35 -33 -70 -59 -77
-59 -8 0 -80 53 -161 118 -82 65 -161 127 -178 137 -86 54 -155 111 -155 130
0 10 13 33 29 50 58 60 202 259 199 274 -2 11 -26 19 -83 29 -56 9 -106 26
-168 58 -81 40 -95 44 -162 44 -62 0 -82 -5 -131 -31z m211 -147 l50 -17 -1
-45 c-1 -39 -6 -49 -44 -82 -54 -48 -84 -49 -165 -3 -72 40 -84 59 -57 95 51
68 118 85 217 52z"/>
<path d="M6425 12314 c-215 -9 -577 -43 -740 -70 -566 -96 -1141 -283 -1627
-532 -236 -121 -604 -347 -743 -457 -22 -17 -53 -40 -70 -50 -26 -16 -100 -74
-261 -205 -224 -183 -491 -458 -786 -810 -90 -107 -279 -383 -395 -576 -64
-105 -182 -330 -223 -424 -13 -30 -43 -97 -67 -149 -52 -111 -124 -303 -198
-526 -29 -89 -30 -94 -74 -255 -62 -232 -110 -527 -141 -872 -8 -80 -8 -123
-1 -136 9 -17 27 -21 117 -27 84 -6 109 -4 119 6 9 9 18 63 25 139 6 69 17
172 25 230 7 58 19 143 25 190 41 305 165 727 315 1070 21 47 47 108 59 135
60 136 239 466 321 590 21 33 46 72 55 87 33 60 142 209 274 377 150 188 496
550 681 710 235 203 685 517 909 633 204 106 541 264 643 302 21 7 76 28 123
45 271 101 724 220 975 256 313 45 751 70 1045 60 380 -13 662 -48 1045 -131
167 -36 483 -130 540 -161 11 -5 34 -13 50 -17 43 -10 241 -90 341 -136 46
-22 86 -40 89 -40 10 0 305 -149 385 -194 357 -202 578 -359 905 -642 419
-362 739 -744 1047 -1249 164 -269 342 -639 414 -860 7 -22 27 -78 44 -125 34
-93 96 -309 110 -380 5 -25 19 -88 30 -140 38 -171 75 -420 105 -698 10 -88
16 -92 140 -92 130 0 128 -3 115 146 -10 108 -61 477 -79 564 -5 25 -17 86
-26 135 -26 139 -74 340 -107 445 -76 239 -205 569 -287 730 -15 30 -43 84
-61 120 -27 54 -100 185 -153 275 -80 137 -245 386 -321 483 -181 232 -231
291 -445 521 -103 110 -332 324 -467 437 -81 67 -329 251 -458 338 -135 92
-193 127 -426 256 -439 243 -1094 481 -1543 559 -62 11 -150 27 -197 36 -279
50 -876 91 -1175 79z"/>
<path d="M1825 12152 c-84 -52 -65 -152 29 -152 60 0 96 34 96 89 0 31 -6 44
-26 60 -33 26 -60 26 -99 3z"/>
<path d="M6530 11883 c-314 -13 -504 -28 -680 -54 -200 -29 -459 -81 -570
-114 -30 -9 -73 -21 -95 -26 -233 -56 -601 -202 -940 -375 -88 -44 -189 -99
-225 -121 -36 -21 -72 -43 -80 -47 -38 -18 -231 -141 -301 -191 -231 -165
-305 -223 -449 -354 -178 -161 -434 -430 -577 -607 -86 -106 -214 -278 -234
-315 -8 -14 -33 -52 -57 -85 -24 -32 -62 -93 -86 -134 -23 -41 -68 -120 -100
-175 -239 -409 -447 -980 -520 -1425 -14 -85 -37 -225 -51 -310 -14 -85 -28
-185 -31 -221 -6 -64 -5 -68 19 -83 35 -23 301 -26 324 -4 9 10 18 53 24 124
12 131 43 344 63 434 8 36 21 97 30 135 29 135 76 304 107 386 17 46 49 136
71 199 64 187 309 666 414 811 19 26 34 49 34 52 0 9 182 262 265 368 143 186
364 417 535 560 148 126 188 158 347 280 173 133 380 262 613 382 572 295 995
433 1595 517 426 61 1053 50 1463 -25 334 -62 556 -117 777 -195 279 -99 420
-157 565 -233 329 -173 387 -208 681 -408 94 -64 310 -237 440 -353 25 -23 61
-55 80 -72 18 -17 70 -68 113 -115 43 -46 98 -104 121 -129 43 -46 172 -206
235 -293 19 -26 51 -69 71 -95 48 -63 169 -245 204 -307 16 -27 34 -57 41 -65
6 -8 24 -40 40 -70 15 -30 44 -82 64 -115 38 -64 52 -93 126 -250 170 -364
282 -738 339 -1125 30 -209 46 -318 52 -373 4 -42 11 -61 25 -68 28 -15 305 0
319 18 8 8 10 38 6 86 -7 83 -34 318 -43 362 -3 17 -14 80 -25 140 -11 61 -33
164 -49 230 -16 66 -38 159 -49 206 -30 124 -114 375 -173 514 -61 144 -217
459 -264 532 -18 28 -43 71 -55 95 -20 41 -167 262 -247 374 -45 62 -251 325
-266 339 -6 6 -44 48 -85 95 -151 174 -244 267 -432 434 -101 89 -411 326
-487 371 -9 6 -64 41 -122 79 -57 38 -111 71 -120 74 -8 3 -33 18 -55 33 -87
59 -481 249 -680 329 -44 17 -111 45 -150 61 -81 33 -186 67 -300 98 -124 34
-305 82 -360 96 -98 25 -284 53 -585 89 -166 20 -512 35 -660 29z"/>
<path d="M10111 11636 c-19 -7 -38 -22 -42 -35 -17 -43 46 -141 89 -141 23 0
102 82 102 105 0 30 -20 55 -57 70 -41 17 -47 18 -92 1z"/>
<path d="M10372 11444 c-26 -18 -52 -64 -52 -92 0 -35 38 -72 74 -72 38 0 83
31 97 67 13 34 -13 90 -46 103 -36 14 -47 13 -73 -6z"/>
<path d="M548 10993 c-18 -15 -36 -32 -40 -38 -10 -13 -10 -67 0 -82 19 -30
114 -44 146 -20 22 16 35 74 25 112 -17 60 -76 73 -131 28z"/>
<path d="M2118 10924 c-77 -41 -55 -147 35 -169 24 -6 33 -1 67 34 59 62 52
95 -27 135 -38 19 -41 19 -75 0z"/>
<path d="M394 10736 c-51 -23 -61 -90 -19 -131 53 -54 155 -18 155 54 0 63
-74 104 -136 77z"/>
<path d="M1928 10698 c-28 -24 -48 -62 -48 -95 0 -27 6 -37 33 -53 47 -29 89
-26 126 9 41 38 39 62 -7 111 -41 42 -75 51 -104 28z"/>
<path d="M9528 10155 c-2 -3 -364 -5 -804 -5 -502 0 -813 -4 -836 -10 -29 -8
-51 -29 -112 -108 -41 -53 -113 -143 -158 -199 -46 -55 -102 -125 -126 -155
-53 -65 -170 -206 -292 -353 -51 -60 -145 -175 -209 -254 -110 -137 -140 -174
-256 -321 -27 -35 -120 -145 -205 -246 -85 -100 -194 -229 -243 -286 -48 -58
-102 -120 -121 -139 -18 -19 -93 -102 -167 -185 -74 -82 -163 -183 -199 -223
-36 -41 -69 -81 -74 -90 -5 -9 -24 -30 -43 -48 -37 -35 -40 -45 -19 -62 21
-17 141 -3 171 21 13 10 48 51 78 91 53 69 90 112 256 299 140 157 180 203
247 283 37 44 72 88 78 98 18 30 101 67 150 67 50 0 63 -11 44 -39 -15 -22
-170 -201 -212 -245 -16 -17 -74 -83 -129 -146 -54 -63 -136 -158 -180 -210
-45 -52 -106 -118 -135 -148 -29 -29 -52 -58 -49 -65 6 -19 144 -21 173 -3 12
9 55 61 94 116 39 55 114 145 166 201 145 155 282 307 312 348 15 20 29 38 32
41 3 3 25 31 49 63 25 32 57 65 72 73 38 19 128 19 135 -1 9 -21 -9 -45 -133
-181 -60 -65 -151 -168 -203 -229 -52 -60 -100 -114 -106 -120 -40 -37 -254
-297 -254 -309 0 -13 14 -16 80 -16 l81 0 40 43 c21 23 56 67 76 97 39 57 79
105 167 200 197 212 318 358 381 462 29 48 77 69 150 66 46 -2 61 -7 63 -19 2
-10 -35 -55 -90 -110 -52 -52 -112 -116 -133 -144 -22 -27 -43 -52 -46 -55 -4
-3 -35 -39 -69 -80 -34 -41 -83 -98 -109 -127 -25 -28 -73 -85 -106 -125 -33
-40 -86 -99 -118 -130 -33 -31 -56 -62 -52 -67 3 -6 41 -11 87 -11 78 0 81 1
112 33 17 19 57 67 88 108 31 41 87 108 123 149 60 67 119 133 251 279 22 26
82 99 133 163 64 81 101 120 123 127 36 13 134 15 142 3 4 -7 -136 -171 -263
-308 -58 -63 -69 -75 -185 -214 -38 -47 -95 -112 -126 -146 -92 -101 -140
-162 -140 -178 0 -21 41 -30 103 -23 58 7 55 5 158 142 33 44 104 127 158 185
54 58 121 132 148 165 28 33 68 79 89 101 35 37 59 66 172 207 19 23 50 50 70
59 41 19 127 24 137 8 9 -15 -32 -67 -139 -180 -149 -156 -230 -244 -246 -266
-8 -12 -37 -46 -63 -76 -26 -31 -60 -71 -75 -91 -15 -19 -64 -76 -109 -126
-46 -50 -83 -97 -83 -105 0 -19 26 -24 90 -17 78 9 131 48 198 146 30 44 82
109 116 145 103 110 287 321 406 468 46 56 86 96 104 102 32 11 125 14 150 4
24 -9 19 -41 -7 -48 -21 -5 -77 -59 -247 -241 -62 -66 -155 -175 -228 -268
-19 -23 -61 -70 -94 -104 -56 -56 -61 -65 -63 -110 -3 -74 -37 -141 -80 -158
-39 -17 -45 -39 -16 -55 49 -26 40 -34 274 254 32 39 64 76 70 81 7 6 30 33
52 60 21 28 42 52 45 55 20 17 159 184 233 278 86 110 109 128 121 96 10 -25
7 -130 -4 -161 -6 -15 -43 -59 -83 -98 -69 -66 -241 -258 -405 -453 -41 -48
-102 -116 -136 -152 -157 -165 -226 -286 -184 -328 29 -29 45 -15 258 219 52
57 124 138 160 179 35 41 71 82 79 91 9 9 27 29 40 45 13 16 40 47 60 69 20
22 54 62 76 89 79 97 122 139 133 132 14 -8 15 -100 3 -162 -6 -31 -18 -51
-47 -75 -58 -50 -170 -170 -269 -289 -49 -58 -114 -132 -145 -165 -78 -82
-195 -214 -254 -288 -28 -34 -91 -104 -140 -157 -50 -53 -111 -118 -136 -145
-25 -28 -106 -115 -179 -195 -195 -212 -201 -220 -255 -285 -55 -66 -92 -106
-208 -229 -43 -45 -78 -86 -78 -93 0 -15 33 -34 80 -44 34 -8 37 -6 105 64 39
40 108 115 154 167 46 52 132 149 191 215 151 169 356 403 458 519 48 55 106
120 129 145 23 26 72 80 110 122 37 41 107 118 154 170 47 52 123 137 169 189
118 136 142 161 154 157 15 -5 20 -95 7 -137 -6 -19 -30 -55 -53 -80 -53 -56
-286 -315 -392 -436 -130 -148 -205 -231 -346 -384 -74 -81 -191 -211 -260
-290 -69 -79 -177 -201 -240 -270 -188 -204 -192 -213 -130 -259 36 -26 52
-20 102 37 18 21 108 119 199 218 91 98 205 224 254 279 49 55 116 129 149
165 34 36 108 119 166 185 58 66 134 151 169 190 118 129 136 149 233 265 121
145 135 157 151 141 15 -15 13 -132 -3 -162 -7 -11 -70 -85 -142 -162 -72 -78
-150 -162 -173 -187 -22 -25 -124 -137 -225 -250 -101 -113 -211 -234 -244
-270 -90 -97 -132 -143 -241 -265 -54 -60 -104 -114 -110 -120 -16 -14 -110
-127 -119 -143 -9 -15 49 -82 69 -82 11 0 166 161 300 310 31 36 93 103 135
150 43 47 118 130 166 186 49 56 155 173 235 260 124 136 222 246 324 367 13
15 28 27 33 27 17 0 24 -37 17 -95 -11 -86 -24 -103 -371 -476 -99 -107 -207
-223 -239 -259 -186 -208 -329 -363 -427 -463 -43 -43 -78 -82 -78 -86 0 -4
13 -20 29 -35 l30 -29 63 59 c142 134 342 341 493 510 39 43 108 119 155 169
47 49 126 135 175 190 158 175 593 608 1270 1260 125 121 267 260 315 308 l88
89 7 91 c9 136 1 2100 -8 2115 -12 17 -42 -9 -67 -58 -11 -19 -53 -78 -94
-130 -42 -52 -111 -140 -153 -195 -93 -121 -84 -109 -132 -170 -111 -139 -301
-394 -301 -403 0 -5 16 -43 35 -84 66 -138 69 -211 13 -327 -29 -60 -131 -162
-193 -191 -43 -22 -64 -25 -155 -25 -101 0 -107 1 -169 35 -69 37 -128 102
-172 188 -21 41 -24 61 -24 157 0 102 2 114 27 156 32 55 130 147 186 177 22
11 67 26 99 33 53 11 69 10 151 -10 51 -12 101 -20 112 -16 10 3 36 29 57 58
20 29 62 84 92 122 49 62 74 92 155 185 12 14 53 63 91 110 89 111 165 200
240 280 122 132 156 174 153 189 -2 12 -21 18 -73 22 -87 8 -290 11 -297 4z"/>
<path d="M3437 10142 c-15 -2 -31 -12 -37 -22 -16 -29 -14 -4665 2 -4665 11 0
88 84 233 255 39 46 93 109 120 140 28 31 63 72 79 91 16 19 70 79 120 135 50
55 123 138 161 184 39 45 124 144 190 219 211 240 249 284 280 320 17 19 87
98 156 175 207 231 320 359 394 446 39 45 109 126 156 179 83 93 122 138 349
402 58 67 152 174 209 238 57 64 120 136 140 161 46 57 431 499 571 655 145
162 236 267 355 409 103 123 222 257 443 500 113 124 150 176 125 176 -85 2
-4026 4 -4046 2z m3802 -156 c26 -17 -1 -104 -38 -123 -9 -4 -803 -9 -1765
-10 -963 -2 -1754 -7 -1758 -11 -5 -5 -9 -906 -11 -2003 -2 -1853 -3 -1996
-19 -2024 -9 -16 -31 -45 -48 -63 -25 -26 -35 -30 -46 -21 -11 9 -13 340 -13
2107 1 1154 4 2108 8 2122 l7 25 1709 5 c1918 6 1958 6 1974 -4z m-1945 -470
c69 -34 127 -98 157 -172 19 -48 24 -81 26 -174 1 -63 2 -118 3 -123 0 -4 12
-13 28 -19 85 -36 243 -189 273 -265 58 -143 -5 -287 -186 -428 -21 -16 -46
-33 -55 -37 -29 -11 -32 -23 -34 -151 -2 -84 -8 -136 -20 -167 -22 -61 -94
-151 -153 -192 -47 -32 -51 -33 -148 -33 -113 0 -147 10 -303 91 l-92 47 -134
-67 c-119 -59 -143 -68 -220 -76 -91 -11 -157 -2 -206 29 -136 83 -184 184
-182 383 l1 107 -58 36 c-72 43 -156 132 -200 211 -30 51 -33 64 -29 119 7
114 78 220 231 348 l57 48 0 94 c0 158 32 257 107 330 67 64 106 79 213 79
110 1 162 -14 289 -80 46 -24 91 -44 101 -44 10 0 69 26 132 59 170 86 292
101 402 47z"/>
<path d="M5036 9409 c-54 -9 -158 -57 -164 -76 -4 -14 89 -104 151 -146 43
-29 55 -33 215 -68 76 -17 108 -20 120 -12 48 29 4 180 -75 255 -56 54 -127
68 -247 47z"/>
<path d="M4311 9388 c-86 -45 -171 -166 -171 -243 0 -12 9 -30 20 -40 18 -16
27 -17 111 -6 98 13 184 43 260 92 50 32 119 101 119 120 0 14 -48 57 -85 77
-19 10 -63 17 -120 19 -79 3 -96 1 -134 -19z"/>
<path d="M4720 9262 c-35 -17 -65 -61 -52 -74 4 -4 52 -5 106 -1 114 7 128 19
78 65 -38 33 -80 36 -132 10z"/>
<path d="M4593 9086 c-22 -8 -56 -24 -73 -36 -38 -27 -250 -345 -250 -375 0
-28 59 -148 113 -232 24 -38 53 -85 66 -105 31 -52 107 -116 150 -127 73 -20
176 -22 284 -8 130 18 134 21 241 182 90 135 146 245 146 284 0 65 -217 383
-283 415 -45 21 -328 22 -394 2z"/>
<path d="M5157 9026 c-4 -9 11 -39 38 -75 24 -33 53 -77 64 -98 21 -43 48 -70
58 -59 15 15 43 114 43 152 0 54 -16 70 -82 78 -29 4 -67 9 -84 12 -23 4 -33
1 -37 -10z"/>
<path d="M4268 9021 c-85 -12 -122 -77 -91 -161 19 -51 28 -60 54 -53 23 6 97
95 129 157 22 40 23 48 10 56 -16 11 -31 11 -102 1z"/>
<path d="M5445 8900 c-4 -6 -14 -57 -24 -113 -17 -101 -16 -104 6 -247 13 -79
27 -148 32 -153 16 -16 51 4 105 58 72 71 96 124 96 209 0 70 -17 117 -67 183
-38 50 -132 89 -148 63z"/>
<path d="M3998 8853 c-63 -66 -108 -163 -108 -237 0 -64 80 -174 159 -215 38
-21 50 3 78 155 l26 140 -28 88 c-27 86 -45 116 -69 116 -6 0 -32 -21 -58 -47z"/>
<path d="M5298 8533 c-9 -10 -31 -50 -50 -90 -19 -39 -54 -93 -77 -120 -22
-27 -41 -55 -41 -61 0 -39 216 23 240 69 8 15 9 34 1 67 -5 26 -12 63 -16 83
-3 20 -14 44 -24 53 -16 15 -19 15 -33 -1z"/>
<path d="M4214 8519 c-20 -22 -42 -109 -43 -170 -1 -53 20 -66 127 -80 109
-15 126 -8 89 37 -28 33 -93 132 -120 184 -27 51 -31 53 -53 29z"/>
<path d="M5320 8200 c-14 -4 -83 -25 -155 -46 -116 -34 -138 -44 -207 -97 -96
-72 -102 -94 -30 -125 71 -30 256 -49 317 -32 41 11 52 21 82 68 57 88 85 157
81 199 -3 34 -6 38 -33 40 -16 1 -41 -2 -55 -7z"/>
<path d="M4150 8181 c-14 -27 -13 -60 6 -113 21 -64 76 -124 148 -161 52 -27
71 -31 131 -31 76 1 197 34 227 61 10 9 18 24 18 34 0 23 -126 136 -177 159
-32 14 -294 70 -331 70 -6 0 -16 -9 -22 -19z"/>
<path d="M4805 8109 c-22 -4 -57 -8 -77 -8 -27 -1 -38 -5 -38 -16 0 -23 46
-65 70 -65 30 0 96 36 114 62 15 21 15 23 -1 30 -21 8 -17 8 -68 -3z"/>
<path d="M10370 7300 c0 -11 14 -43 31 -71 19 -30 28 -54 22 -60 -5 -5 -33 0
-70 12 -34 12 -69 19 -78 16 -23 -9 -19 -37 6 -37 11 0 33 -6 47 -14 15 -8 53
-22 85 -32 70 -22 80 -33 83 -87 2 -54 1 -53 24 -32 30 27 24 64 -20 138 -22
36 -40 69 -40 72 0 13 -72 115 -81 115 -5 0 -9 -9 -9 -20z"/>
<path d="M10175 7079 c-41 -44 -46 -55 -41 -81 7 -34 40 -84 64 -97 9 -4 34
-11 54 -15 33 -6 41 -3 76 29 49 44 72 46 72 5 0 -21 -9 -38 -30 -57 -34 -30
-39 -53 -11 -53 21 0 76 57 86 90 12 39 -16 80 -109 156 -49 41 -95 74 -102
74 -6 0 -33 -23 -59 -51z m124 -50 c35 -35 37 -46 13 -76 -26 -33 -66 -34
-100 -3 -31 30 -38 67 -17 90 27 30 68 25 104 -11z"/>
<path d="M10017 6888 c-38 -37 -53 -90 -38 -131 13 -34 71 -77 113 -83 44 -8
89 28 107 84 11 33 11 43 -3 71 -20 38 -90 91 -122 91 -12 0 -38 -15 -57 -32z
m123 -52 c42 -46 18 -116 -40 -116 -33 0 -90 54 -90 84 0 56 86 77 130 32z"/>
<path d="M9773 6774 c-3 -8 -2 -19 3 -23 24 -22 154 -130 190 -159 23 -17 50
-32 61 -32 24 0 43 19 43 41 0 13 -8 17 -34 16 -28 -1 -46 10 -102 59 -77 67
-137 114 -148 114 -4 0 -9 -7 -13 -16z"/>
<path d="M7294 6681 c-43 -7 -96 -45 -136 -96 -20 -26 -86 -101 -345 -393 -35
-39 -83 -96 -106 -125 -23 -28 -94 -107 -159 -174 -65 -66 -118 -123 -118
-126 0 -20 37 -37 80 -37 45 0 51 3 92 47 23 26 86 93 138 148 52 55 122 132
155 170 33 38 108 120 167 183 141 148 309 337 328 368 13 22 13 26 0 34 -17
11 -35 11 -96 1z"/>
<path d="M5305 6673 c-50 -5 -63 -17 -228 -217 -164 -198 -284 -335 -412 -471
-55 -58 -200 -218 -230 -254 -100 -118 -320 -363 -427 -476 -26 -27 -58 -65
-72 -83 -13 -19 -31 -39 -39 -45 -7 -7 -42 -45 -76 -85 -78 -93 -103 -121
-230 -259 -117 -129 -120 -140 -50 -189 l41 -28 32 35 c17 20 58 67 91 104 33
38 97 105 141 149 45 45 144 153 219 241 76 88 163 187 194 220 61 66 126 142
270 316 52 63 162 189 245 280 83 91 160 177 170 190 11 13 56 65 100 114 45
50 108 121 141 159 113 131 149 171 203 228 30 31 51 61 48 67 -7 11 -49 12
-131 4z"/>
<path d="M5561 6632 c-49 -50 -181 -200 -296 -337 -138 -162 -171 -200 -245
-280 -41 -44 -90 -99 -109 -120 -108 -127 -229 -264 -321 -366 -58 -64 -141
-156 -186 -205 -44 -49 -129 -147 -189 -219 -121 -145 -206 -240 -403 -451
-146 -156 -147 -158 -83 -203 48 -34 63 -27 147 67 43 48 119 130 169 182 50
52 132 145 183 205 51 61 116 136 144 168 28 32 60 70 71 85 11 15 48 56 82
92 61 65 342 391 380 441 20 25 115 132 245 274 36 39 103 115 150 169 47 55
94 109 105 122 11 12 52 57 91 101 98 107 218 253 233 281 18 34 6 42 -61 42
-60 0 -63 -1 -107 -48z"/>
<path d="M5914 6666 c-17 -8 -58 -47 -90 -87 -33 -40 -83 -102 -112 -138 -29
-36 -79 -94 -111 -130 -32 -37 -82 -95 -112 -131 -69 -84 -179 -209 -295 -335
-92 -100 -221 -246 -324 -365 -50 -57 -100 -115 -301 -341 -36 -41 -88 -101
-114 -134 -27 -33 -97 -114 -155 -180 -59 -66 -140 -159 -181 -207 -41 -47
-109 -124 -151 -171 -43 -46 -78 -91 -78 -99 0 -20 63 -68 89 -68 20 0 55 37
250 260 146 167 202 231 256 290 28 30 68 78 90 105 21 28 59 73 84 101 25 28
91 102 146 164 55 63 129 146 165 185 160 175 235 259 254 284 26 33 151 174
202 226 58 60 268 302 292 337 8 10 25 31 39 46 14 15 72 83 130 152 57 69
124 149 148 178 25 30 43 58 39 63 -8 14 -125 10 -160 -5z"/>
<path d="M6286 6670 c-44 -6 -56 -13 -104 -66 -30 -32 -73 -82 -96 -110 -22
-28 -81 -98 -131 -156 -49 -58 -133 -156 -185 -219 -52 -62 -109 -127 -127
-144 -18 -16 -45 -46 -60 -66 -49 -63 -277 -320 -594 -669 -70 -77 -151 -168
-338 -380 -80 -90 -177 -197 -239 -265 -26 -27 -75 -86 -110 -130 -36 -44 -96
-115 -134 -157 -50 -56 -69 -84 -66 -100 4 -28 78 -81 100 -73 10 4 72 72 140
153 68 80 143 169 168 197 25 28 72 82 105 120 33 38 87 98 120 134 33 36 101
113 150 171 49 58 106 123 126 145 20 22 96 110 168 195 168 197 280 325 406
464 87 96 296 332 430 485 22 25 54 60 70 76 72 73 224 243 273 306 76 97 66
109 -72 89z"/>
<path d="M6625 6671 c-60 -10 -77 -23 -151 -113 -80 -98 -217 -258 -329 -384
-44 -50 -95 -107 -112 -128 -18 -21 -82 -92 -142 -159 -60 -67 -126 -142 -148
-166 -21 -24 -69 -78 -108 -120 -129 -142 -190 -209 -205 -227 -9 -11 -54 -62
-100 -115 -47 -52 -130 -149 -185 -215 -55 -65 -127 -148 -160 -185 -130 -144
-371 -419 -480 -549 -38 -46 -98 -115 -132 -153 -70 -78 -77 -105 -37 -136 57
-45 66 -39 265 186 101 114 199 225 218 248 42 50 257 289 333 370 31 33 78
101 105 150 97 177 111 198 178 279 129 155 175 202 279 281 105 79 170 142
302 296 27 31 85 99 129 150 44 51 107 122 141 158 33 36 99 109 145 161 47
52 101 111 120 131 97 101 189 212 189 229 0 17 -7 20 -37 19 -21 -1 -56 -5
-78 -8z"/>
<path d="M6912 6663 c-18 -9 -43 -30 -55 -47 -12 -17 -44 -56 -72 -87 -27 -31
-108 -122 -180 -204 -287 -326 -396 -446 -482 -530 -35 -34 -63 -67 -63 -74 0
-18 135 -4 187 20 23 11 61 43 85 72 87 104 236 272 443 500 189 209 306 348
300 357 -10 16 -127 11 -163 -7z"/>
<path d="M4965 6661 c-53 -9 -66 -18 -110 -71 -20 -25 -60 -70 -89 -100 -43
-46 -120 -133 -276 -314 -48 -56 -204 -232 -276 -311 -39 -44 -87 -98 -105
-119 -19 -22 -61 -70 -94 -106 -131 -143 -458 -515 -546 -620 -83 -98 -120
-234 -76 -277 18 -17 19 -17 45 13 15 17 49 60 77 95 27 35 80 98 117 139 36
41 100 114 140 162 40 47 105 122 143 166 39 43 102 117 140 163 119 142 293
339 406 459 148 158 324 355 430 480 48 58 116 131 149 163 34 32 59 64 57 70
-4 14 -74 18 -132 8z"/>
<path d="M9760 6580 c-29 -29 -53 -88 -46 -115 8 -33 65 -84 107 -96 66 -20
129 35 129 114 0 24 -10 45 -33 72 -28 32 -40 38 -84 42 -43 5 -54 2 -73 -17z
m100 -37 c54 -37 65 -82 28 -114 -32 -29 -72 -24 -102 12 -33 39 -33 72 0 98
32 25 42 26 74 4z"/>
<path d="M9580 6348 c-28 -29 -50 -59 -50 -68 1 -17 142 -135 162 -135 32 0
15 35 -36 76 -30 24 -58 51 -61 59 -7 17 26 64 48 68 9 2 44 -18 77 -43 34
-26 67 -44 75 -42 21 9 6 46 -24 62 -15 7 -33 21 -40 29 -15 18 -68 46 -88 46
-7 0 -36 -23 -63 -52z"/>
<path d="M1269 6253 c-16 -42 -32 -349 -26 -513 4 -120 9 -157 30 -215 43
-122 69 -166 139 -235 56 -56 83 -74 154 -104 121 -51 204 -63 277 -42 53 15
57 19 68 58 24 90 -22 413 -74 515 -37 71 -101 139 -181 190 -206 132 -251
175 -316 300 -19 37 -41 69 -47 71 -7 2 -18 -9 -24 -25z"/>
<path d="M11805 6210 c-27 -52 -132 -146 -253 -226 -101 -68 -207 -159 -254
-221 -34 -44 -76 -139 -96 -218 -24 -96 -39 -317 -23 -357 21 -55 100 -70 239
-48 143 24 295 136 349 258 13 31 29 66 33 77 50 115 65 267 54 544 -9 225
-17 253 -49 191z"/>
<path d="M9437 6180 c-14 -11 -29 -29 -32 -40 -9 -27 -35 -25 -67 5 -31 28
-71 34 -66 10 2 -9 57 -60 123 -115 89 -73 123 -96 132 -88 21 17 16 25 -39
69 -29 23 -57 47 -61 55 -11 18 9 53 36 63 26 10 47 0 101 -46 44 -37 54 -40
62 -18 7 17 -23 48 -90 96 -46 34 -65 36 -99 9z"/>
<path d="M9278 6001 c-46 -54 -49 -99 -12 -149 27 -35 77 -62 113 -62 24 0 87
53 94 79 2 10 1 25 -4 32 -6 11 -16 5 -39 -23 -37 -45 -71 -49 -114 -13 -36
29 -39 75 -8 108 12 13 22 29 22 35 0 19 -34 14 -52 -7z"/>
<path d="M9134 5812 c-49 -39 -59 -105 -22 -149 22 -27 86 -63 112 -63 32 0
106 69 106 98 0 29 -26 28 -41 0 -7 -13 -17 -26 -23 -30 -16 -11 -74 -10 -81
2 -3 5 12 33 35 61 22 28 40 54 40 59 0 15 -49 40 -77 40 -15 0 -38 -8 -49
-18z m59 -40 c3 -4 -5 -19 -17 -34 -15 -19 -25 -25 -35 -18 -12 7 -13 13 -3
34 11 25 45 36 55 18z"/>
<path d="M8913 5683 c-15 -21 -40 -53 -55 -71 -15 -18 -28 -37 -28 -42 0 -17
29 -11 50 10 11 11 24 20 29 20 5 0 49 -34 97 -75 84 -70 115 -87 128 -66 6
10 -27 43 -126 126 -62 52 -66 58 -56 81 6 13 15 24 20 24 4 0 8 7 8 15 0 28
-39 15 -67 -22z"/>
<path d="M8686 5465 c-11 -30 -6 -45 29 -84 19 -21 35 -46 35 -55 0 -10 8 -16
23 -16 13 0 51 -21 85 -46 58 -43 82 -49 82 -21 0 7 -27 34 -60 60 -49 40 -60
54 -60 79 0 28 -2 30 -27 25 -34 -7 -60 11 -65 43 -4 29 -33 39 -42 15z"/>
<path d="M2569 5402 c-13 -11 -51 -33 -84 -50 -83 -42 -222 -128 -270 -167
-159 -130 -265 -296 -265 -413 0 -129 129 -382 194 -382 53 0 210 134 306 260
74 97 84 119 104 214 18 88 20 150 5 216 -26 120 -26 123 26 196 55 76 67 137
29 142 -11 2 -31 -6 -45 -16z"/>
<path d="M10440 5399 c0 -6 10 -25 23 -42 47 -67 58 -114 67 -292 12 -242 27
-296 110 -400 74 -93 292 -295 318 -295 20 0 95 95 127 163 37 76 61 211 51
285 -16 116 -120 254 -291 387 -135 104 -218 149 -356 193 -44 15 -49 15 -49
1z"/>
<path d="M6298 5279 c-171 -17 -322 -92 -458 -228 -96 -97 -137 -166 -181
-304 -26 -81 -29 -103 -29 -230 0 -161 18 -244 76 -361 90 -179 309 -352 496
-391 87 -18 308 -20 376 -4 137 33 330 160 410 269 15 19 39 50 55 68 79 94
112 216 112 422 0 209 -16 270 -104 405 -93 142 -241 267 -384 324 -95 38
-197 46 -369 30z"/>
<path d="M8666 5249 c-82 -64 -69 -161 27 -208 41 -20 48 -21 79 -8 42 18 58
37 68 84 12 50 -8 94 -56 127 -47 31 -82 33 -118 5z m121 -68 c29 -34 29 -56
-2 -86 -28 -29 -47 -31 -85 -8 -35 20 -52 56 -44 89 13 50 91 53 131 5z"/>
<path d="M1004 5038 c9 -83 25 -129 109 -296 126 -252 277 -391 444 -408 127
-14 326 35 353 87 40 73 -90 321 -229 437 -95 80 -160 107 -296 121 -231 23
-289 41 -333 100 -12 17 -30 31 -39 31 -13 0 -15 -10 -9 -72z"/>
<path d="M12014 5045 c-62 -33 -88 -39 -305 -68 -93 -13 -116 -20 -175 -55
-112 -65 -185 -140 -284 -289 -60 -90 -90 -145 -90 -163 0 -51 88 -108 210
-136 140 -32 256 -4 370 88 126 103 189 185 251 328 45 104 107 300 101 318
-5 16 -8 15 -78 -23z"/>
<path d="M8440 4971 c-54 -53 -48 -119 15 -167 69 -52 142 -35 184 45 27 50
-13 58 -44 8 -17 -26 -27 -32 -55 -32 -48 0 -49 22 -5 74 41 50 42 57 13 82
-34 27 -75 24 -108 -10z m70 -42 c0 -6 -10 -19 -22 -29 -29 -23 -53 -9 -37 21
10 20 59 27 59 8z"/>
<path d="M8276 4776 c-51 -61 -50 -111 1 -161 31 -30 43 -35 84 -35 40 0 51 4
73 31 18 21 33 29 48 27 35 -5 34 -39 -2 -73 -31 -29 -40 -65 -17 -65 19 0 75
61 82 90 3 14 2 37 -4 51 -12 33 -184 179 -210 179 -11 0 -35 -19 -55 -44z
m123 -57 c17 -17 31 -34 31 -38 0 -20 -44 -61 -65 -61 -34 0 -85 46 -85 77 0
57 71 71 119 22z"/>
<path d="M2808 4667 c-229 -141 -256 -161 -361 -264 -135 -132 -207 -267 -207
-386 0 -72 30 -177 75 -270 57 -116 71 -121 166 -60 87 55 171 134 234 218 97
129 121 218 111 411 -10 183 -2 244 41 307 33 48 39 78 18 83 -5 1 -40 -16
-77 -39z"/>
<path d="M10244 4653 c21 -114 35 -266 35 -379 1 -179 18 -228 132 -369 80
-100 258 -255 293 -255 32 0 122 143 154 245 20 64 18 188 -3 238 -52 125
-232 308 -479 486 -54 39 -107 71 -118 71 -18 0 -20 -4 -14 -37z"/>
<path d="M5096 4618 c-30 -35 -104 -120 -163 -189 -59 -69 -162 -188 -228
-265 -143 -166 -195 -230 -195 -240 0 -17 55 -64 75 -64 22 0 81 57 220 215
39 43 109 120 156 169 87 91 161 179 193 228 17 26 38 169 28 196 -9 24 -31
11 -86 -50z"/>
<path d="M8112 4580 c-14 -18 -22 -44 -22 -68 0 -73 101 -143 165 -114 34 16
79 78 70 99 -5 15 -11 12 -37 -19 -24 -30 -37 -38 -63 -38 -50 0 -52 24 -6 79
36 43 38 47 24 69 -12 18 -25 22 -62 22 -41 0 -50 -4 -69 -30z m78 -28 c0 -25
-35 -56 -55 -49 -22 9 -19 32 8 50 30 21 47 21 47 -1z"/>
<path d="M7890 4488 c0 -7 28 -35 62 -63 33 -27 68 -57 77 -66 32 -32 104 -79
121 -79 19 0 53 44 43 54 -4 3 -20 6 -36 6 -30 0 -62 22 -168 112 -53 46 -99
62 -99 36z"/>
<path d="M7814 4388 c-8 -12 14 -33 151 -143 82 -67 93 -72 126 -55 23 13 27
52 4 44 -25 -10 -58 4 -96 39 -58 54 -154 127 -167 127 -6 0 -14 -5 -18 -12z"/>
<path d="M5147 4303 c-12 -15 -54 -63 -92 -107 -39 -45 -105 -121 -147 -171
-42 -49 -106 -120 -142 -157 -36 -36 -66 -73 -66 -81 0 -20 66 -77 89 -77 18
0 215 202 354 362 l67 78 0 74 c0 41 -3 81 -6 90 -9 24 -31 19 -57 -11z"/>
<path d="M1205 4288 c-3 -7 27 -74 66 -148 183 -346 271 -456 427 -533 76 -38
92 -42 177 -45 75 -4 104 0 151 16 139 48 184 78 184 120 0 37 -62 161 -114
230 -60 78 -108 122 -193 176 -86 55 -133 66 -288 66 -176 0 -213 11 -372 111
-26 17 -34 18 -38 7z"/>
<path d="M11825 4247 c-78 -43 -174 -67 -310 -78 -234 -18 -327 -54 -442 -171
-97 -98 -181 -227 -185 -285 -3 -33 38 -65 141 -112 65 -29 90 -34 172 -38 90
-5 99 -3 175 28 71 29 90 43 191 144 62 62 117 123 123 136 6 13 24 47 40 74
64 108 144 285 138 309 -3 13 -9 12 -43 -7z"/>
<path d="M3093 4181 c-26 -21 -109 -99 -184 -172 -267 -262 -376 -488 -310
-641 27 -64 96 -167 148 -221 41 -43 49 -47 77 -41 74 15 246 237 301 389 10
28 22 55 26 60 4 6 12 36 19 67 12 52 11 62 -9 117 -12 33 -29 95 -37 138 -13
69 -13 86 1 159 8 46 22 101 30 124 25 71 8 77 -62 21z"/>
<path d="M7792 4198 c-64 -69 -48 -159 36 -202 42 -22 74 -20 106 5 66 52 66
131 0 189 -45 39 -109 42 -142 8z m131 -59 c36 -45 10 -109 -45 -109 -37 0
-88 48 -88 84 0 55 93 73 133 25z"/>
<path d="M9978 4049 c3 -112 0 -164 -12 -212 -48 -191 10 -415 151 -581 63
-76 155 -156 178 -156 27 0 100 83 152 175 56 98 75 150 76 211 2 126 -128
327 -362 562 -47 48 -108 101 -136 118 l-50 31 3 -148z"/>
<path d="M7550 4028 c-23 -32 -30 -52 -30 -88 0 -113 146 -209 231 -152 50 33
89 85 89 119 0 24 -32 10 -50 -21 -28 -51 -62 -70 -113 -62 -36 6 -53 16 -81
47 -49 54 -49 98 -1 146 41 41 44 53 10 53 -18 0 -34 -12 -55 -42z"/>
<path d="M5233 4023 c-24 -21 -118 -133 -156 -185 -15 -21 -59 -71 -97 -113
-39 -41 -70 -83 -70 -94 0 -21 53 -71 76 -71 9 0 36 23 62 52 26 29 63 68 83
88 76 74 159 175 170 208 13 39 5 95 -17 117 -20 19 -27 19 -51 -2z"/>
<path d="M5349 3788 c-29 -41 -128 -157 -188 -221 -65 -68 -66 -71 -30 -101
49 -41 66 -35 149 55 41 45 94 102 118 128 56 61 61 82 28 131 -14 22 -33 40
-40 40 -8 0 -25 -15 -37 -32z"/>
<path d="M7401 3704 c-29 -24 -41 -54 -22 -54 5 0 21 7 37 15 39 20 52 4 25
-31 -28 -36 -27 -79 4 -109 46 -47 83 -33 144 53 l23 34 -24 25 c-38 41 -114
93 -136 93 -11 0 -34 -12 -51 -26z m133 -89 c28 -28 -13 -73 -54 -60 -25 8
-27 50 -2 64 24 15 38 13 56 -4z"/>
<path d="M3460 3698 c-78 -93 -266 -380 -310 -475 -45 -94 -90 -223 -90 -255
0 -40 35 -124 79 -190 51 -75 193 -224 223 -234 27 -8 60 17 100 78 103 155
158 308 158 444 0 66 -29 204 -50 242 -5 9 -24 58 -41 107 -24 70 -32 113 -36
193 -5 99 -11 115 -33 90z"/>
<path d="M9600 3678 c-2 -115 -23 -236 -60 -350 -55 -170 -62 -217 -45 -322
24 -146 53 -224 122 -329 46 -69 111 -127 143 -127 20 0 102 79 162 154 69 87
88 138 88 240 0 151 -38 256 -165 456 -157 247 -244 346 -245 278z"/>
<path d="M5480 3590 c-25 -34 -77 -92 -117 -130 -40 -37 -73 -72 -73 -78 0
-21 75 -82 100 -82 18 0 51 27 127 107 115 119 120 132 75 198 -41 59 -60 57
-112 -15z"/>
<path d="M7276 3556 c-14 -19 -26 -41 -26 -49 0 -9 21 -31 48 -50 26 -20 56
-45 66 -56 22 -24 66 -28 66 -6 0 8 -25 33 -55 56 -59 44 -72 67 -56 98 28 51
-5 56 -43 7z"/>
<path d="M7104 3507 c-7 -19 1 -47 13 -47 4 0 15 5 23 10 13 8 12 13 -7 32
-20 19 -23 20 -29 5z"/>
<path d="M1605 3439 c-16 -24 104 -182 248 -327 154 -155 252 -208 408 -219
152 -10 274 29 377 122 l45 41 -21 39 c-25 49 -158 194 -215 234 -23 17 -73
49 -110 72 l-69 41 -151 -3 c-259 -5 -430 -4 -469 3 -21 4 -40 3 -43 -3z"/>
<path d="M10870 3440 c-131 -25 -272 -128 -390 -284 -45 -59 -59 -107 -38
-125 76 -63 111 -83 195 -112 177 -60 325 -40 463 64 123 92 257 233 362 380
53 75 51 88 -14 79 -67 -9 -302 -9 -433 0 -55 4 -120 3 -145 -2z"/>
<path d="M7170 3430 c0 -24 155 -144 176 -136 24 9 15 22 -61 86 -64 55 -115
77 -115 50z"/>
<path d="M7076 3316 c-54 -65 -45 -104 12 -51 16 15 30 21 35 16 5 -5 17 -43
27 -83 22 -93 39 -99 98 -32 23 25 42 52 42 59 0 27 -20 25 -46 -5 -15 -16
-31 -30 -36 -30 -13 0 -48 88 -48 120 0 19 -7 33 -19 40 -27 14 -26 15 -65
-34z"/>
<path d="M4013 3238 c-28 -29 -75 -88 -104 -132 -210 -306 -239 -373 -247
-558 -4 -116 -4 -116 27 -172 48 -84 251 -253 287 -239 27 10 119 160 159 258
40 97 75 231 75 285 0 26 -34 132 -65 205 -55 127 -79 267 -60 363 11 58 -8
56 -72 -10z"/>
<path d="M9026 3179 c-8 -115 -26 -193 -63 -277 -68 -154 -74 -233 -34 -402
21 -83 122 -271 173 -322 67 -65 80 -67 131 -22 61 54 144 160 178 226 26 52
29 67 29 155 0 78 -5 112 -25 167 -28 81 -112 233 -181 330 -27 37 -58 83 -69
102 -25 41 -113 144 -124 144 -5 0 -11 -46 -15 -101z"/>
<path d="M6954 3169 c-12 -6 -30 -29 -39 -50 -17 -37 -17 -41 -1 -77 35 -77
130 -110 182 -61 23 21 54 69 54 84 0 17 -42 1 -52 -19 -14 -33 -62 -53 -83
-36 -22 18 -19 31 20 72 38 40 43 59 21 77 -20 17 -77 22 -102 10z m51 -39 c9
-15 -22 -60 -40 -60 -21 0 -19 47 3 59 22 13 29 13 37 1z"/>
<path d="M6709 3008 c-35 -36 -59 -84 -59 -121 0 -27 39 -90 73 -118 12 -10
41 -26 63 -35 40 -15 44 -15 87 4 52 23 107 91 106 131 0 19 -14 38 -52 69
-28 23 -59 42 -68 42 -23 0 -92 -87 -85 -106 7 -19 40 -3 56 26 14 27 52 25
78 -3 30 -32 28 -58 -7 -91 -40 -38 -98 -38 -147 -1 -65 50 -73 118 -19 172
19 19 35 41 35 49 0 24 -27 16 -61 -18z"/>
<path d="M8547 2983 c-4 -3 -7 -25 -7 -48 0 -52 -28 -180 -47 -218 -7 -15 -38
-65 -69 -112 -73 -112 -94 -181 -94 -307 0 -109 21 -209 71 -339 36 -94 60
-122 97 -113 48 12 166 75 218 117 60 49 107 127 123 207 26 124 -21 314 -145
587 -90 196 -124 249 -147 226z"/>
<path d="M4512 2967 c-30 -36 -186 -373 -201 -435 -6 -20 -19 -71 -30 -112
-51 -188 -7 -363 118 -467 75 -62 214 -127 241 -113 42 23 96 173 126 350 17
103 18 162 3 232 -11 52 -65 164 -114 236 -30 44 -69 147 -84 217 -19 96 -35
121 -59 92z"/>
<path d="M2630 2780 c-36 -5 -105 -18 -153 -29 -98 -23 -161 -26 -256 -11 -35
6 -66 8 -69 5 -17 -16 107 -157 227 -259 184 -155 238 -191 340 -222 59 -18
213 -18 271 0 119 37 270 149 270 202 0 25 -72 100 -205 212 -104 89 -143 105
-260 108 -55 1 -129 -1 -165 -6z"/>
<path d="M10258 2780 c-26 -4 -76 -23 -113 -41 -102 -50 -305 -236 -305 -280
0 -26 99 -110 171 -146 118 -58 269 -79 354 -49 57 21 193 94 241 130 105 80
354 316 354 335 0 6 -31 8 -85 4 -86 -6 -188 5 -300 34 -71 18 -251 25 -317
13z"/>
<path d="M5048 2673 c-45 -98 -114 -274 -140 -358 -42 -134 -53 -196 -53 -305
1 -125 23 -192 89 -273 74 -91 238 -174 303 -153 60 19 129 283 121 455 -7
122 -28 178 -120 318 -76 115 -112 198 -131 303 -16 86 -34 89 -69 13z"/>
<path d="M7987 2636 c-21 -121 -41 -165 -119 -267 -86 -113 -95 -129 -118
-202 -21 -67 -27 -217 -11 -292 5 -22 14 -64 20 -94 12 -58 53 -140 83 -168
27 -24 73 -20 159 16 95 40 169 104 206 179 27 56 28 61 28 222 -1 151 -3 173
-29 260 -45 155 -169 440 -191 440 -7 0 -18 -38 -28 -94z"/>
<path d="M3345 2296 c-5 -2 -37 -12 -70 -22 -33 -9 -67 -21 -75 -25 -8 -5 -55
-27 -105 -49 -118 -54 -210 -74 -292 -66 -76 8 -82 -4 -25 -56 44 -39 241
-165 363 -231 101 -55 148 -71 251 -88 67 -11 87 -11 154 4 100 22 169 63 265
158 95 94 102 110 59 154 -58 60 -264 176 -360 204 -39 11 -149 22 -165 17z"/>
<path d="M9591 2274 c-91 -24 -262 -119 -328 -180 -42 -40 -42 -74 0 -136 42
-61 94 -101 195 -150 73 -35 95 -41 170 -45 135 -8 280 36 405 121 21 14 40
26 43 26 10 0 230 159 248 179 17 18 17 20 -3 30 -11 6 -37 11 -58 11 -65 0
-194 38 -293 86 -52 25 -115 52 -140 60 -58 18 -170 17 -239 -2z"/>
<path d="M4014 1850 c-55 -11 -138 -56 -254 -135 -93 -65 -197 -120 -242 -129
-13 -3 -35 -7 -50 -11 -48 -10 -35 -37 35 -70 257 -121 396 -162 578 -172 125
-7 180 4 254 50 105 66 235 237 235 310 0 36 -78 84 -225 137 -67 24 -257 36
-331 20z"/>
<path d="M8841 1850 c-115 -17 -280 -83 -305 -122 -13 -21 24 -101 92 -198 67
-96 90 -118 159 -152 78 -37 166 -49 289 -37 82 7 126 17 279 58 30 9 126 50
258 110 76 35 86 57 30 67 -116 20 -237 76 -363 169 -118 86 -140 96 -244 106
-103 10 -120 10 -195 -1z"/>
<path d="M4769 1526 c-89 -26 -168 -87 -363 -280 -67 -66 -139 -130 -159 -141
-40 -21 -48 -40 -19 -49 83 -25 192 -38 372 -43 181 -5 212 -4 260 12 76 25
143 60 184 96 47 40 113 141 128 192 14 50 35 77 59 77 57 0 385 -104 599
-190 60 -24 347 -167 450 -224 36 -20 91 -49 123 -64 37 -17 56 -32 55 -42 -2
-8 -24 -29 -50 -46 -77 -50 -124 -127 -98 -159 26 -32 73 -11 155 66 46 43 92
70 110 63 7 -3 35 -34 64 -69 28 -36 62 -67 75 -71 33 -8 116 38 116 65 0 11
-111 97 -144 112 -51 23 -33 44 110 129 74 44 137 80 140 80 2 0 81 38 176 85
94 47 186 89 202 94 17 5 76 26 131 46 199 71 308 102 395 112 61 6 67 2 90
-57 24 -63 91 -169 127 -200 39 -35 92 -61 178 -87 50 -15 96 -18 285 -18 202
1 233 3 302 23 43 12 80 22 83 22 3 0 5 6 5 13 0 6 -31 27 -68 45 -70 33 -97
58 -283 256 -96 102 -149 129 -294 150 -232 34 -419 9 -760 -101 -60 -19 -123
-41 -140 -48 -16 -7 -64 -26 -105 -43 -73 -29 -365 -169 -405 -195 -130 -81
-244 -159 -259 -176 -28 -30 -60 -26 -105 14 -94 85 -492 295 -721 381 -246
93 -396 131 -605 156 -223 26 -338 30 -396 14z"/>
</g>
</svg>
